<svg width="32" height="32" viewBox="0 0 32 32" fill="none" xmlns="http://www.w3.org/2000/svg">
<path d="M7.02041 12.5714C6.49376 12.5714 6.08937 12.7048 5.80723 12.9714C5.5345 13.2381 5.39814 13.6286 5.39814 14.1429H7.02041V15.5313H5.39814V21H3.8464V15.5313H3V14.1429H3.8464C3.8464 13.6667 3.92164 13.2381 4.07211 12.8571C4.22258 12.4667 4.43418 12.1381 4.70691 11.8714C4.98904 11.5952 5.3229 11.381 5.70848 11.2286C6.10347 11.0762 6.54078 11 7.02041 11V12.5714Z" fill="#1A1A1A"/>
<path d="M24.2445 13.9688H25.5705L26.953 18.5545L28.3495 13.9688H30L27.7288 20.8259H26.3605L24.9075 16.2259L23.4545 20.8259H22.0861L19.815 13.9688H21.4655L22.862 18.5545L24.2445 13.9688Z" fill="#1A1A1A"/>
<path d="M14.543 19.4224L14.5578 20.532L12.599 19.4224H10.3479V13.8421H8.80501V20.9849H15.8581C17.8059 20.9849 19.3848 19.3859 19.3848 17.4135C19.3848 15.4411 17.8059 13.8421 15.8581 13.8421C13.9104 13.8421 12.3315 15.4411 12.3315 17.4135C12.3315 17.6914 12.3636 17.9617 12.4229 18.2213L11.8286 18.5625L14.2933 20.0308L14.3167 17.1351L13.8748 17.3884C13.8881 16.2905 14.7708 15.4046 15.8581 15.4046C16.9537 15.4046 17.8419 16.304 17.8419 17.4135C17.8419 18.523 16.9537 19.4224 15.8581 19.4224H14.543Z" fill="#1A1A1A"/>
</svg>
