<svg width="640" height="276" viewBox="0 0 640 276" fill="none" xmlns="http://www.w3.org/2000/svg">
<path d="M207.649 97.3857C201.408 97.3857 196.615 98.9457 193.271 102.066C190.039 105.186 188.422 109.754 188.422 115.771H207.649V132.016H188.422V196H170.031V132.016H160V115.771H170.031C170.031 110.2 170.923 105.186 172.706 100.729C174.49 96.16 176.998 92.3157 180.23 89.1957C183.574 85.9643 187.531 83.4571 192.101 81.6743C196.782 79.8914 201.965 79 207.649 79V97.3857Z" fill="white"/>
<path d="M411.786 113.735H427.502L443.887 167.387L460.439 113.735H480L453.082 193.963H436.865L419.644 140.143L402.424 193.963H386.206L359.289 113.735H378.85L395.402 167.387L411.786 113.735Z" fill="white"/>
<path d="M296.805 177.542L296.981 190.524L273.766 177.542H247.087V112.252H228.8V195.824H312.393C335.477 195.824 354.19 177.116 354.19 154.038C354.19 130.96 335.477 112.252 312.393 112.252C289.309 112.252 270.595 130.96 270.595 154.038C270.595 157.29 270.976 160.452 271.679 163.49L264.636 167.481L293.846 184.661L294.124 150.781L288.887 153.745C289.044 140.899 299.506 130.534 312.393 130.534C325.378 130.534 335.904 141.057 335.904 154.038C335.904 167.019 325.378 177.542 312.393 177.542H296.805Z" fill="white"/>
</svg>
