<svg width="1024" height="441" viewBox="0 0 1024 441" fill="none" xmlns="http://www.w3.org/2000/svg">
<path d="M232.186 225.216C232.186 233.99 230.669 242.003 227.634 249.256C224.715 256.392 220.571 262.592 215.201 267.856C209.948 273.004 203.586 276.981 196.115 279.789C188.644 282.596 180.356 284 171.25 284H128V166.432H171.25C180.356 166.432 188.644 167.835 196.115 170.643C203.586 173.451 210.007 177.487 215.376 182.751C220.746 187.898 224.89 194.098 227.809 201.351C230.727 208.487 232.186 216.442 232.186 225.216ZM211.174 225.216C211.174 219.25 210.182 213.868 208.197 209.072C206.329 204.159 203.645 200.006 200.142 196.613C196.64 193.104 192.438 190.413 187.535 188.541C182.632 186.67 177.146 185.734 171.075 185.734H149.012V264.698H171.075C177.146 264.698 182.632 263.762 187.535 261.89C192.438 260.018 196.64 257.386 200.142 253.994C203.645 250.484 206.329 246.331 208.197 241.535C210.182 236.622 211.174 231.182 211.174 225.216Z" fill="#7008E7"/>
<path d="M293.473 215.894C287.286 215.894 282.383 217.59 278.764 220.982C275.145 224.375 273.336 228.996 273.336 234.845V282.574H254.074V235.547C254.074 229.581 255.008 224.2 256.876 219.403C258.744 214.607 261.37 210.512 264.756 207.12C268.258 203.727 272.402 201.154 277.188 199.399C282.091 197.527 287.519 196.591 293.473 196.591V215.894Z" fill="#7008E7"/>
<path d="M324.882 157C328.384 157 331.302 158.17 333.637 160.51C335.971 162.849 337.139 165.774 337.139 169.283C337.139 172.793 335.971 175.717 333.637 178.057C331.302 180.397 328.384 181.567 324.882 181.567C321.379 181.567 318.461 180.397 316.126 178.057C313.792 175.717 312.624 172.793 312.624 169.283C312.624 165.774 313.792 162.849 316.126 160.51C318.461 158.17 321.379 157 324.882 157ZM315.251 197.359H334.512V281.587H315.251V197.359Z" fill="#7008E7"/>
<path d="M375.678 196.591L399.825 255.026L423.971 196.591H444.968L408.398 281.587H391.251L354.681 196.591H375.678Z" fill="#7008E7"/>
<path d="M452.116 237.718C452.116 231.401 453.167 225.552 455.268 220.171C457.486 214.79 460.521 210.169 464.373 206.308C468.226 202.331 472.778 199.289 478.031 197.184C483.401 194.961 489.238 193.85 495.542 193.85C501.846 193.85 507.624 194.961 512.877 197.184C518.247 199.289 522.858 202.331 526.71 206.308C530.562 210.169 533.539 214.79 535.64 220.171C537.858 225.552 538.967 231.401 538.967 237.718C538.967 238.537 538.909 239.356 538.792 240.175C538.792 240.877 538.676 241.813 538.442 242.983H471.728C472.778 248.949 475.347 253.687 479.432 257.196C483.635 260.589 489.005 262.285 495.542 262.285C499.978 262.285 503.888 261.466 507.274 259.828C510.776 258.191 513.577 255.792 515.679 252.634H536.691C535.29 257.079 533.306 261.115 530.738 264.742C528.169 268.251 525.076 271.293 521.457 273.866C517.955 276.323 513.986 278.253 509.55 279.657C505.231 280.944 500.561 281.587 495.542 281.587C489.238 281.587 483.401 280.534 478.031 278.429C472.778 276.206 468.226 273.164 464.373 269.304C460.521 265.443 457.486 260.823 455.268 255.441C453.167 250.06 452.116 244.153 452.116 237.718ZM518.48 228.945C516.846 224.031 514.044 220.171 510.075 217.363C506.106 214.556 501.262 213.152 495.542 213.152C489.705 213.152 484.802 214.556 480.833 217.363C476.864 220.171 474.121 224.031 472.603 228.945H518.48Z" fill="#7008E7"/>
<path d="M610.759 176.686C604.222 176.686 599.203 178.324 595.701 181.599C592.315 184.875 590.623 189.671 590.623 195.988H610.759V213.042H590.623V280.216H571.361V213.042H560.855V195.988H571.361C571.361 190.139 572.295 184.875 574.163 180.195C576.031 175.399 578.657 171.363 582.042 168.088C585.545 164.695 589.689 162.063 594.475 160.191C599.378 158.319 604.806 157.384 610.759 157.384V176.686Z" fill="#7008E7"/>
<path d="M824.558 193.85H841.018L858.178 250.177L875.513 193.85H896L867.808 278.078H850.823L832.788 221.575L814.752 278.078H797.767L769.575 193.85H790.063L807.398 250.177L824.558 193.85Z" fill="#7008E7"/>
<path d="M702.239 259.653L702.424 273.281L678.11 259.653H650.167V191.108H631.015V278.845H718.564C742.741 278.845 762.34 259.205 762.34 234.977C762.34 210.749 742.741 191.108 718.564 191.108C694.388 191.108 674.789 210.749 674.789 234.977C674.789 238.39 675.187 241.71 675.924 244.9L668.547 249.09L699.14 267.126L699.431 231.557L693.946 234.669C694.11 221.182 705.068 210.3 718.564 210.3C732.164 210.3 743.188 221.348 743.188 234.977C743.188 248.605 732.164 259.653 718.564 259.653H702.239Z" fill="#7008E7"/>
</svg>
