<svg width="400" height="400" viewBox="0 0 400 400" fill="none" xmlns="http://www.w3.org/2000/svg">
<path d="M208.47 236.906L208.751 257.566L171.722 236.906H129.167V133H100V266H233.332C270.152 266 300 236.227 300 199.5C300 162.773 270.152 133 233.332 133C196.512 133 166.664 162.773 166.664 199.5C166.664 204.675 167.271 209.708 168.393 214.542L157.159 220.894L203.75 248.234L204.193 194.317L195.839 199.033C196.09 178.589 212.777 162.094 233.332 162.094C254.043 162.094 270.833 178.841 270.833 199.5C270.833 220.159 254.043 236.906 233.332 236.906H208.47Z" fill="white"/>
</svg>
